
        <svg xmlns="http://www.w3.org/2000/svg" xmlns:xlink="http://www.w3.org/1999/xlink" version="1.1" width="3171.4285714285716" height="2743.903655258427" viewBox="0 0 3171.4285714285716 2743.903655258427">
			
			<g transform="scale(8.571428571428571) translate(10, 10)">
				<defs id="SvgjsDefs1027"/><g id="SvgjsG1028" featureKey="MI9fam-0" transform="matrix(2.0833581215916523,0,0,2.0833581215916523,71.33313502726678,-14.583506851141566)" fill="#fff"><g xmlns="http://www.w3.org/2000/svg"><path d="M55,9c0-1.105-0.895-2-2-2h-6c-1.105,0-2,0.895-2,2v3h10V9z"/><rect x="45" y="14" width="10" height="6"/><path d="M63,25c0-1.105-0.895-2-2-2H39c-1.105,0-2,0.895-2,2v5h26V25z"/><path d="M48.37,42.27l0.12-0.04c0.49-0.15,1-0.23,1.51-0.23s1.02,0.08,1.51,0.23l0.12,0.04l0.12,0.06L69,49.55V35   c0-1.1-0.9-2-2-2H33c-1.1,0-2,0.9-2,2v14.55l17.25-7.22L48.37,42.27z"/><path d="M26.9,72.61c1.93-2.05,4.81-4.61,9.84-4.61c5.62,0,8.55,3.2,10.49,5.32c0.56,0.61,0.95,1.01,1.27,1.29   V45.47L20.36,57.26c-1.03,0.33-1.6,1.45-1.26,2.49L26.9,72.61z"/><path d="M76.49,88.598c-2.215,0-3.279-1.015-4.968-2.809c-1.776-1.886-3.987-4.235-8.295-4.235   c-4.304,0-6.512,2.349-8.286,4.236c-1.686,1.793-2.747,2.808-4.956,2.808c-2.208,0-3.269-1.015-4.954-2.808   c-1.773-1.887-3.981-4.236-8.284-4.236s-6.51,2.349-8.284,4.236c-1.685,1.793-2.745,2.807-4.953,2.807   c-1.247,0-2.258,0.985-2.258,2.201c0,1.216,1.011,2.201,2.258,2.201c4.303,0,6.51-2.349,8.283-4.236   c1.685-1.793,2.745-2.807,4.953-2.807c2.208,0,3.269,1.015,4.954,2.807C43.474,90.651,45.681,93,49.985,93   c4.304,0,6.512-2.349,8.286-4.236c1.686-1.793,2.747-2.808,4.956-2.808c2.215,0,3.279,1.015,4.968,2.809   C69.971,90.652,72.182,93,76.49,93c1.247,0,2.258-0.985,2.258-2.201C78.748,89.583,77.737,88.598,76.49,88.598z"/><path d="M89.742,71c-4.308,0-6.519,2.409-8.295,4.344c-1.689,1.84-2.753,2.882-4.968,2.882   s-3.279-1.041-4.968-2.882C69.734,73.409,67.524,71,63.215,71c-4.304,0-6.512,2.409-8.286,4.345   c-1.686,1.839-2.747,2.88-4.956,2.88c-2.208,0-3.269-1.041-4.954-2.88C43.246,73.41,41.039,71,36.735,71   c-4.303,0-6.51,2.41-8.284,4.346c-1.685,1.839-2.745,2.88-4.953,2.88c-2.209,0-3.27-1.041-4.955-2.88   C16.769,73.409,14.562,71,10.258,71C9.011,71,8,72.011,8,73.258c0,1.247,1.011,2.258,2.258,2.258c2.209,0,3.27,1.041,4.955,2.88   c1.774,1.936,3.981,4.345,8.285,4.345c4.303,0,6.51-2.41,8.283-4.346c1.685-1.839,2.745-2.88,4.953-2.88   c2.208,0,3.269,1.041,4.955,2.88c1.773,1.936,3.981,4.345,8.284,4.345c4.304,0,6.512-2.409,8.286-4.345   c1.686-1.84,2.747-2.88,4.956-2.88c2.215,0,3.279,1.041,4.968,2.882c1.776,1.935,3.987,4.344,8.295,4.344   c4.308,0,6.519-2.409,8.295-4.344c1.689-1.84,2.753-2.882,4.968-2.882c1.247,0,2.258-1.011,2.258-2.258   C92,72.011,90.989,71,89.742,71z"/><path d="M51.5,74.57c0.31-0.29,0.69-0.68,1.22-1.25C54.66,71.2,57.59,68,63.22,68c5.04,0,7.92,2.57,9.86,4.63   l7.82-12.88c0.34-1.04-0.23-2.16-1.26-2.49L51.5,45.47V74.57z"/></g></g><g id="SvgjsG1029" featureKey="EI8VXn-0" transform="matrix(4.058441299934092,0,0,4.058441299934092,-6.493506176655328,175.37987093770596)" fill="#fff"><path d="M1.6 20 l0 -13.86 l9.36 0 l0 2.62 l-6.24 0 l0 2.72 l5.54 0 l0 2.56 l-5.54 0 l0 3.34 l6.7 0 l0 2.62 l-9.82 0 z M23.020000000000003 20 q-1.34 -2.38 -2.9 -4.7 t-3.32 -4.38 l0 9.08 l-3.08 0 l0 -13.86 l2.54 0 q0.66 0.66 1.46 1.62 t1.63 2.05 t1.65 2.26 t1.54 2.25 l0 -8.18 l3.1 0 l0 13.86 l-2.62 0 z M31.96 17.46 q0.22 0.02 0.51 0.03 t0.69 0.01 q2.34 0 3.47 -1.18 t1.13 -3.26 q0 -2.18 -1.08 -3.3 t-3.42 -1.12 q-0.32 0 -0.66 0.01 t-0.64 0.05 l0 8.76 z M40.980000000000004 13.059999999999999 q0 1.8 -0.56 3.14 t-1.59 2.22 t-2.51 1.32 t-3.32 0.44 q-0.84 0 -1.96 -0.07 t-2.2 -0.29 l0 -13.5 q1.08 -0.2 2.25 -0.27 t2.01 -0.07 q1.78 0 3.23 0.4 t2.49 1.26 t1.6 2.2 t0.56 3.22 z M52.84 17.32 l0 2.68 l-9.26 0 l0 -13.86 l3.12 0 l0 11.18 l6.14 0 z M54.84 20 l0 -13.86 l9.36 0 l0 2.62 l-6.24 0 l0 2.72 l5.54 0 l0 2.56 l-5.54 0 l0 3.34 l6.7 0 l0 2.62 l-9.82 0 z M70.74 17.62 q0.66 0 1.09 -0.11 t0.69 -0.3 t0.36 -0.45 t0.1 -0.58 q0 -0.68 -0.64 -1.13 t-2.2 -0.97 q-0.68 -0.24 -1.36 -0.55 t-1.22 -0.78 t-0.88 -1.14 t-0.34 -1.63 t0.36 -1.73 t1.02 -1.31 t1.6 -0.83 t2.12 -0.29 q1.4 0 2.42 0.3 t1.68 0.66 l-0.9 2.46 q-0.58 -0.3 -1.29 -0.53 t-1.71 -0.23 q-1.12 0 -1.61 0.31 t-0.49 0.95 q0 0.38 0.18 0.64 t0.51 0.47 t0.76 0.38 t0.95 0.35 q1.08 0.4 1.88 0.79 t1.33 0.91 t0.79 1.22 t0.26 1.7 q0 1.94 -1.36 3.01 t-4.1 1.07 q-0.92 0 -1.66 -0.11 t-1.31 -0.27 t-0.98 -0.34 t-0.69 -0.34 l0.88 -2.48 q0.62 0.34 1.53 0.61 t2.23 0.27 z M82.38 17.62 q0.66 0 1.09 -0.11 t0.69 -0.3 t0.36 -0.45 t0.1 -0.58 q0 -0.68 -0.64 -1.13 t-2.2 -0.97 q-0.68 -0.24 -1.36 -0.55 t-1.22 -0.78 t-0.88 -1.14 t-0.34 -1.63 t0.36 -1.73 t1.02 -1.31 t1.6 -0.83 t2.12 -0.29 q1.4 0 2.42 0.3 t1.68 0.66 l-0.9 2.46 q-0.58 -0.3 -1.29 -0.53 t-1.71 -0.23 q-1.12 0 -1.61 0.31 t-0.49 0.95 q0 0.38 0.18 0.64 t0.51 0.47 t0.76 0.38 t0.95 0.35 q1.08 0.4 1.88 0.79 t1.33 0.91 t0.79 1.22 t0.26 1.7 q0 1.94 -1.36 3.01 t-4.1 1.07 q-0.92 0 -1.66 -0.11 t-1.31 -0.27 t-0.98 -0.34 t-0.69 -0.34 l0.88 -2.48 q0.62 0.34 1.53 0.61 t2.23 0.27 z"/></g><g id="SvgjsG1030" featureKey="EI8VXn-1" transform="matrix(2.2842970709538664,0,0,2.2842970709538664,-3.6548734618220555,254.3399045613641)" fill="#fff"><path d="M4.72 17.46 q0.22 0.02 0.51 0.03 t0.69 0.01 q2.34 0 3.47 -1.18 t1.13 -3.26 q0 -2.18 -1.08 -3.3 t-3.42 -1.12 q-0.32 0 -0.66 0.01 t-0.64 0.05 l0 8.76 z M13.74 13.059999999999999 q0 1.8 -0.56 3.14 t-1.59 2.22 t-2.51 1.32 t-3.32 0.44 q-0.84 0 -1.96 -0.07 t-2.2 -0.29 l0 -13.5 q1.08 -0.2 2.25 -0.27 t2.01 -0.07 q1.78 0 3.23 0.4 t2.49 1.26 t1.6 2.2 t0.56 3.22 z M20.4 5.98 q3.12 0 4.78 1.11 t1.66 3.45 q0 1.46 -0.67 2.37 t-1.93 1.43 q0.42 0.52 0.88 1.19 t0.91 1.4 t0.87 1.52 t0.78 1.55 l-3.5 0 q-0.38 -0.68 -0.77 -1.38 t-0.8 -1.36 t-0.81 -1.25 t-0.8 -1.07 l-1.54 0 l0 5.06 l-3.12 0 l0 -13.66 q1.02 -0.2 2.11 -0.28 t1.95 -0.08 z M20.58 8.64 q-0.34 0 -0.61 0.02 t-0.51 0.04 l0 3.76 l0.88 0 q1.76 0 2.52 -0.44 t0.76 -1.5 q0 -1.02 -0.77 -1.45 t-2.27 -0.43 z M29.68 20 l0 -13.86 l9.36 0 l0 2.62 l-6.24 0 l0 2.72 l5.54 0 l0 2.56 l-5.54 0 l0 3.34 l6.7 0 l0 2.62 l-9.82 0 z M51.080000000000005 20 q-0.22 -0.72 -0.49 -1.48 t-0.53 -1.52 l-5.4 0 q-0.26 0.76 -0.53 1.52 t-0.49 1.48 l-3.24 0 q0.78 -2.24 1.48 -4.14 t1.37 -3.58 t1.32 -3.19 t1.35 -2.95 l2.98 0 q0.68 1.44 1.34 2.95 t1.33 3.19 t1.37 3.58 t1.48 4.14 l-3.34 0 z M47.34 9.28 q-0.1 0.3 -0.3 0.82 t-0.46 1.2 t-0.57 1.5 t-0.63 1.72 l3.94 0 q-0.32 -0.9 -0.62 -1.72 t-0.57 -1.5 t-0.47 -1.2 t-0.32 -0.82 z M59.900000000000006 6.140000000000001 q0.36 0.66 0.83 1.63 t0.98 2.1 t1.01 2.31 t0.94 2.22 q0.44 -1.04 0.94 -2.22 t1.01 -2.31 t0.98 -2.1 t0.83 -1.63 l2.84 0 q0.2 1.38 0.37 3.09 t0.3 3.56 t0.24 3.71 t0.19 3.5 l-3.04 0 q-0.06 -2.02 -0.16 -4.4 t-0.3 -4.8 q-0.36 0.84 -0.8 1.86 t-0.87 2.04 t-0.83 1.95 t-0.68 1.59 l-2.18 0 q-0.28 -0.66 -0.68 -1.59 t-0.83 -1.95 t-0.87 -2.04 t-0.8 -1.86 q-0.2 2.42 -0.3 4.8 t-0.16 4.4 l-3.04 0 q0.08 -1.64 0.19 -3.5 t0.24 -3.71 t0.3 -3.56 t0.37 -3.09 l2.98 0 z M89.24 6.140000000000001 l0 2.66 l-4.18 0 l0 11.2 l-3.12 0 l0 -11.2 l-4.18 0 l0 -2.66 l11.48 0 z M95.3 5.98 q3.12 0 4.78 1.11 t1.66 3.45 q0 1.46 -0.67 2.37 t-1.93 1.43 q0.42 0.52 0.88 1.19 t0.91 1.4 t0.87 1.52 t0.78 1.55 l-3.5 0 q-0.38 -0.68 -0.77 -1.38 t-0.8 -1.36 t-0.81 -1.25 t-0.8 -1.07 l-1.54 0 l0 5.06 l-3.12 0 l0 -13.66 q1.02 -0.2 2.11 -0.28 t1.95 -0.08 z M95.48 8.64 q-0.34 0 -0.61 0.02 t-0.51 0.04 l0 3.76 l0.88 0 q1.76 0 2.52 -0.44 t0.76 -1.5 q0 -1.02 -0.77 -1.45 t-2.27 -0.43 z M113.86 20 q-0.22 -0.72 -0.49 -1.48 t-0.53 -1.52 l-5.4 0 q-0.26 0.76 -0.53 1.52 t-0.49 1.48 l-3.24 0 q0.78 -2.24 1.48 -4.14 t1.37 -3.58 t1.32 -3.19 t1.35 -2.95 l2.98 0 q0.68 1.44 1.34 2.95 t1.33 3.19 t1.37 3.58 t1.48 4.14 l-3.34 0 z M110.12 9.28 q-0.1 0.3 -0.3 0.82 t-0.46 1.2 t-0.57 1.5 t-0.63 1.72 l3.94 0 q-0.32 -0.9 -0.62 -1.72 t-0.57 -1.5 t-0.47 -1.2 t-0.32 -0.82 z M123.12 20 q-0.82 -1.74 -1.62 -3.62 t-1.52 -3.72 t-1.33 -3.52 t-1.05 -3 l3.44 0 q0.4 1.2 0.87 2.59 t0.96 2.77 t0.95 2.64 t0.86 2.18 q0.38 -0.92 0.85 -2.18 t0.96 -2.64 t0.96 -2.77 t0.87 -2.59 l3.32 0 q-0.46 1.32 -1.06 3 t-1.32 3.52 t-1.52 3.72 t-1.62 3.62 l-3 0 z M133.44 20 l0 -13.86 l9.36 0 l0 2.62 l-6.24 0 l0 2.72 l5.54 0 l0 2.56 l-5.54 0 l0 3.34 l6.7 0 l0 2.62 l-9.82 0 z M154.82 17.32 l0 2.68 l-9.26 0 l0 -13.86 l3.12 0 l0 11.18 l6.14 0 z"/></g>
			</g>
		</svg>
	